<svg xmlns="http://www.w3.org/2000/svg" fill="gray" preserveAspectRatio="none" start="22" axis="x" ship_length="5" sunk="" width="284" height="85"><rect id="backgroundrect" width="100%" height="100%" x="0" y="0" fill="none" stroke="none" class="" style=""/><g class="currentLayer" style=""><title>Layer 1</title><path d="M206.97314682006837,1.2314090728759766 c0,1.1 0,4.1 0.1,6.8 c0.1,3.5 -0.30000000000000004,4.9 -1.4,5.3 c-0.9,0.30000000000000004 -1.3,1 -1,1.5 c0.30000000000000004,0.5 -0.2,1.2 -1,1.5 c-0.9,0.30000000000000004 -1.6,1.4 -1.6,2.4 c0,3.2 -4.2,13 -5.6,13 c-0.9,0 -1.4,-1.7000000000000002 -1.6,-5.3 l-0.30000000000000004,-5.2 h-13 l0.30000000000000004,5.1 c0.30000000000000004,4 0,5.3 -1.2,5.7 c-1,0.4 -1.6,1.9 -1.6,4.2 V39.73140907287598 h-23 v14 H24.07314682006836 v2.5 c0,2 0.5,2.5 2.5,2.5 c1.6,0 2.5,0.6000000000000001 2.5,1.5 c0,1.3 -2.3,1.5 -14.5,1.5 c-16.4,0 -15.9,-0.30000000000000004 -13,7.9 c2.1,6.1 5.1,9.8 9.8,12.4 l4.2,2.2 l128.2,0.30000000000000004 L272.07314682006836,84.73140907287598 l0.6000000000000001,-2.7 c1.4,-6.4 3.9,-13.2 7.3,-19.8 c2,-3.9 3.7,-7.3 3.9,-7.7 c0.2,-0.4 -11.3,-0.9 -25.5,-1 l-25.8,-0.30000000000000004 l-0.2,-4 c-0.6000000000000001,-9.7 -1.5,-14.5 -2.6,-14.5 c-0.9,0 -1.1,-1.3 -0.9,-4 l0.4,-4 h-5 c-3,0 -5.4,0.5 -5.9,1.3 c-0.4,0.7000000000000001 -2,1.8 -3.5,2.4 c-1.6,0.7000000000000001 -2.8,1.9 -2.8,2.8 c0,0.8 -0.5,1.5 -1.1,1.5 c-0.7000000000000001,0 -1,-3.3 -1,-9.8 c0.1,-12.3 -0.8,-23.4 -2,-24.7 c-0.6000000000000001,-0.5 -0.9,-0.2 -1,1 z" id="svg_1" class="selected" fill="#b6b6b6" fill-opacity="1" stroke="#242424" stroke-opacity="1" stroke-width="2"/></g></svg>