<?xml version="1.0" encoding="UTF-8" standalone="no" ?>
<!DOCTYPE svg PUBLIC "-//W3C//DTD SVG 1.1//EN" "http://www.w3.org/Graphics/SVG/1.1/DTD/svg11.dtd">
<svg xmlns="http://www.w3.org/2000/svg" xmlns:xlink="http://www.w3.org/1999/xlink" version="1.1" width="1080" height="1080" viewBox="0 0 1080 1080" xml:space="preserve">
<desc>Created with Fabric.js 5.2.4</desc>
<defs>
</defs>
<rect x="0" y="0" width="100%" height="100%" fill="transparent"></rect>
<g transform="matrix(1 0 0 1 540 540)" id="99e4ce42-4e1e-4dc8-be72-9da1db513968"  >
<rect style="stroke: none; stroke-width: 1; stroke-dasharray: none; stroke-linecap: butt; stroke-dashoffset: 0; stroke-linejoin: miter; stroke-miterlimit: 4; fill: rgb(255,255,255); fill-rule: nonzero; opacity: 1; visibility: hidden;" vector-effect="non-scaling-stroke"  x="-540" y="-540" rx="0" ry="0" width="1080" height="1080" />
</g>
<g transform="matrix(1 0 0 1 540 540)" id="87e8072c-c295-49ac-adba-4c157029d7c8"  >
</g>
<g transform="matrix(1 0 0 1 541 539)" id="748168da-f3dd-4c21-995f-821cfad7f9d0"  >
<path style="stroke: rgb(255,255,255); stroke-width: 2; stroke-dasharray: none; stroke-linecap: butt; stroke-dashoffset: 0; stroke-linejoin: miter; stroke-miterlimit: 4; fill: rgb(0,0,0); fill-opacity: 0.73; fill-rule: nonzero; opacity: 1;" vector-effect="non-scaling-stroke"  transform=" translate(-148.86, -48.63)" d="M 213.9 7.5 C 213.9 8.6 213.9 11.6 214 14.3 C 214.1 17.8 213.7 19.200000000000003 212.6 19.6 C 211.7 19.900000000000002 211.29999999999998 20.6 211.6 21.1 C 211.9 21.6 211.4 22.3 210.6 22.6 C 209.7 22.900000000000002 209 24 209 25 C 209 28.2 204.8 38 203.4 38 C 202.5 38 202 36.3 201.8 32.7 L 201.5 27.500000000000004 L 188.5 27.500000000000004 L 188.8 32.6 C 189.10000000000002 36.6 188.8 37.9 187.60000000000002 38.300000000000004 C 186.60000000000002 38.7 186.00000000000003 40.2 186.00000000000003 42.50000000000001 L 186.00000000000003 46 L 163.00000000000003 46 L 163.00000000000003 60 L 31 60 L 31 62.5 C 31 64.5 31.5 65 33.5 65 C 35.1 65 36 65.6 36 66.5 C 36 67.8 33.7 68 21.5 68 C 5.100000000000001 68 5.6 67.7 8.5 75.9 C 10.6 82 13.6 85.7 18.3 88.30000000000001 L 22.5 90.50000000000001 L 150.7 90.80000000000001 L 279 91 L 279.6 88.3 C 281 81.89999999999999 283.5 75.1 286.90000000000003 68.5 C 288.90000000000003 64.6 290.6 61.2 290.8 60.8 C 291 60.4 279.5 59.9 265.3 59.8 L 239.5 59.5 L 239.3 55.5 C 238.70000000000002 45.8 237.8 41 236.70000000000002 41 C 235.8 41 235.60000000000002 39.7 235.8 37 L 236.20000000000002 33 L 231.20000000000002 33 C 228.20000000000002 33 225.8 33.5 225.3 34.3 C 224.9 35 223.3 36.099999999999994 221.8 36.699999999999996 C 220.20000000000002 37.4 219 38.599999999999994 219 39.49999999999999 C 219 40.29999999999999 218.5 40.99999999999999 217.9 40.99999999999999 C 217.20000000000002 40.99999999999999 216.9 37.699999999999996 216.9 31.199999999999992 C 217 18.89999999999999 216.1 7.799999999999994 214.9 6.499999999999993 C 214.3 5.999999999999993 214 6.299999999999993 213.9 7.499999999999993 z" stroke-linecap="round" />
</g>
</svg>