<?xml version="1.0" encoding="UTF-8" standalone="no" ?>
<!DOCTYPE svg PUBLIC "-//W3C//DTD SVG 1.1//EN" "http://www.w3.org/Graphics/SVG/1.1/DTD/svg11.dtd">
<svg xmlns="http://www.w3.org/2000/svg" xmlns:xlink="http://www.w3.org/1999/xlink" version="1.1" width="1080" height="1080" viewBox="0 0 1080 1080" xml:space="preserve">
<desc>Created with Fabric.js 5.2.4</desc>
<defs>
</defs>
<rect x="0" y="0" width="100%" height="100%" fill="transparent"></rect>
<g transform="matrix(1 0 0 1 540 540)" id="87e8072c-c295-49ac-adba-4c157029d7c8"  >
</g>
<g transform="matrix(1 0 0 1 540 540)" id="99e4ce42-4e1e-4dc8-be72-9da1db513968"  >
<rect style="stroke: none; stroke-width: 1; stroke-dasharray: none; stroke-linecap: butt; stroke-dashoffset: 0; stroke-linejoin: miter; stroke-miterlimit: 4; fill: rgb(255,255,255); fill-rule: nonzero; opacity: 1; visibility: hidden;" vector-effect="non-scaling-stroke"  x="-540" y="-540" rx="0" ry="0" width="1080" height="1080" />
</g>
<g transform="matrix(1 0 0 1 540 540)"  >
<path style="stroke: rgb(255,252,252); stroke-width: 2; stroke-dasharray: none; stroke-linecap: butt; stroke-dashoffset: 0; stroke-linejoin: miter; stroke-miterlimit: 4; fill: rgb(0,0,0); fill-opacity: 0.73; fill-rule: nonzero; opacity: 1;" vector-effect="non-scaling-stroke"  transform=" translate(-150.53, -46.75)" d="M 215 6.5 C 214.8 7.6 214.8 8.8 214.9 9.2 C 214.9 9.6 215.20000000000002 11.7 215.6 13.899999999999999 C 216.2 17.299999999999997 216 18 214.6 18 C 213.29999999999998 18 213 18.5 213.5 20 C 213.9 21.4 213.7 22 212.7 22 C 211.7 22 211.2 23.1 211.2 25.2 C 211.1 27 210.29999999999998 31 209.2 34 C 207.39999999999998 39.2 207.1 39.5 203.7 39.8 C 200.89999999999998 40 200.1 40.599999999999994 199.79999999999998 42.3 C 199.6 43.5 198.79999999999998 44.599999999999994 197.89999999999998 44.8 C 196.7 45 195.49999999999997 42.199999999999996 192.39999999999998 31.499999999999996 L 188.5 18 L 184.3 18 C 178.20000000000002 18 177.4 19.4 176.5 30.7 C 175.5 45.5 175.7 45 169.5 45 C 164.7 45 164.1 45.3 163.7 47.2 C 163.29999999999998 49.2 163.29999999999998 49.1 163.1 46.7 C 163 44.7 162.5 44 161 44 C 159.6 44 159 43.3 159 41.9 C 159 40.4 158.5 39.9 156.8 40.199999999999996 C 155.20000000000002 40.4 154.60000000000002 41.099999999999994 154.8 42.199999999999996 C 155 43.199999999999996 154.60000000000002 43.99999999999999 154 43.99999999999999 C 153.5 43.99999999999999 153 45.099999999999994 153 46.49999999999999 C 153 48.89999999999999 152.7 48.99999999999999 147.6 48.99999999999999 C 142.7 48.99999999999999 142.1 49.199999999999996 141.79999999999998 51.199999999999996 C 141.6 52.699999999999996 140.7 53.599999999999994 139.29999999999998 53.8 C 137.79999999999998 54 136.99999999999997 54.8 136.99999999999997 56.099999999999994 C 136.99999999999997 57.89999999999999 136.09999999999997 57.99999999999999 113.79999999999997 57.99999999999999 C 100.99999999999997 57.99999999999999 89.89999999999998 57.599999999999994 89.09999999999997 57.099999999999994 C 86.89999999999996 55.699999999999996 91.09999999999997 52.39999999999999 96.49999999999997 51.39999999999999 C 101.49999999999997 50.49999999999999 103.39999999999998 48.49999999999999 100.49999999999997 47.39999999999999 C 99.59999999999997 46.99999999999999 98.39999999999998 47.39999999999999 97.69999999999997 48.39999999999999 C 96.79999999999997 49.69999999999999 95.29999999999997 50.099999999999994 91.99999999999997 49.79999999999999 C 85.49999999999997 49.29999999999999 85.59999999999997 46.99999999999999 92.19999999999997 46.89999999999999 C 100.29999999999997 46.69999999999999 94.19999999999997 45.19999999999999 85.49999999999997 45.19999999999999 C 77.09999999999997 45.19999999999999 70.59999999999997 46.69999999999999 78.29999999999997 46.89999999999999 C 83.69999999999997 46.99999999999999 84.29999999999997 48.099999999999994 79.99999999999997 49.69999999999999 C 78.09999999999997 50.39999999999999 76.99999999999997 51.499999999999986 76.99999999999997 52.79999999999999 C 76.99999999999997 54.89999999999999 79.19999999999997 57.29999999999999 80.39999999999998 56.49999999999999 C 80.69999999999997 56.199999999999996 80.59999999999998 56.49999999999999 80.09999999999998 57.099999999999994 C 79.59999999999998 57.8 75.09999999999998 57.99999999999999 67.39999999999998 57.699999999999996 C 60.799999999999976 57.4 53.89999999999998 57.099999999999994 51.99999999999998 57.099999999999994 C 49.299999999999976 56.99999999999999 48.89999999999998 56.8 49.99999999999998 55.99999999999999 C 50.799999999999976 55.49999999999999 52.69999999999998 54.99999999999999 54.19999999999998 54.99999999999999 C 55.899999999999984 54.99999999999999 57.29999999999998 54.199999999999996 57.99999999999998 52.99999999999999 C 58.799999999999976 51.49999999999999 60.09999999999998 50.99999999999999 63.49999999999998 50.99999999999999 C 68.09999999999998 50.99999999999999 69.99999999999997 49.599999999999994 68.09999999999998 47.699999999999996 C 67.19999999999997 46.8 66.49999999999999 46.9 64.99999999999999 47.8 C 62.59999999999999 49.199999999999996 53.999999999999986 49.4 53.999999999999986 48 C 53.999999999999986 47.4 55.999999999999986 47 58.499999999999986 47 C 60.999999999999986 47 62.999999999999986 46.5 62.999999999999986 46 C 62.999999999999986 44.7 42.29999999999998 44.7 41.499999999999986 45.9 C 41.19999999999999 46.5 43.09999999999999 47 45.69999999999999 47.199999999999996 C 50.39999999999999 47.49999999999999 50.39999999999999 47.599999999999994 47.69999999999999 48.8 C 46.19999999999999 49.4 44.69999999999999 50.699999999999996 44.29999999999999 51.599999999999994 C 43.59999999999999 53.599999999999994 45.29999999999999 56.599999999999994 46.99999999999999 56.199999999999996 C 47.599999999999994 56.099999999999994 47.89999999999999 56.4 47.49999999999999 56.99999999999999 C 47.199999999999996 57.49999999999999 43.79999999999999 57.99999999999999 39.89999999999999 57.99999999999999 L 33 57.99999999999999 L 33 60.89999999999999 C 33 63.29999999999999 33.5 63.89999999999999 35.5 64.19999999999999 C 36.9 64.39999999999999 38 64.89999999999999 38 65.49999999999999 C 38 66.09999999999998 32.3 66.59999999999998 23.5 66.79999999999998 C 15.5 66.89999999999998 9 67.39999999999998 9 67.79999999999998 C 9 68.29999999999998 9.7 70.89999999999998 10.5 73.79999999999998 C 12.4 80.09999999999998 16.2 84.69999999999999 21.5 87.09999999999998 C 25.3 88.89999999999998 31.4 88.99999999999999 152.5 88.99999999999999 L 279.5 88.99999999999999 L 281.2 82.59999999999998 C 282.9 76.09999999999998 289.5 61.49999999999998 291.09999999999997 60.39999999999998 C 293.99999999999994 58.59999999999998 290.59999999999997 57.99999999999998 278.09999999999997 57.99999999999998 C 266.4 57.99999999999998 264.09999999999997 57.799999999999976 263.59999999999997 56.39999999999998 C 262.7 53.99999999999998 262.7 53.99999999999998 267.79999999999995 53.89999999999998 L 272.49999999999994 53.699999999999974 L 266.49999999999994 52.89999999999998 C 255.89999999999995 51.299999999999976 253.49999999999994 51.199999999999974 251.29999999999995 51.699999999999974 C 249.09999999999997 52.199999999999974 247.99999999999994 54.99999999999997 249.99999999999994 54.99999999999997 C 250.59999999999994 54.99999999999997 250.99999999999994 55.699999999999974 250.99999999999994 56.49999999999997 C 250.99999999999994 57.699999999999974 249.69999999999993 57.99999999999997 245.49999999999994 57.99999999999997 L 240 57.99999999999997 L 240 52.699999999999974 C 240 45.39999999999998 239 39.99999999999997 237.6 39.99999999999997 C 236.9 39.99999999999997 236.6 38.59999999999997 236.79999999999998 35.99999999999997 L 237.2 31.99999999999997 L 232.6 31.99999999999997 C 227.9 31.99999999999997 224.5 33.29999999999997 222.4 35.89999999999997 C 221.5 37.09999999999997 221.1 36.39999999999997 220.5 32.29999999999997 C 220.1 29.39999999999997 220.1 26.199999999999967 220.5 25.09999999999997 C 220.9 23.69999999999997 220.4 21.999999999999968 219.1 20.09999999999997 C 217.79999999999998 18.29999999999997 217 15.49999999999997 216.9 12.799999999999969 C 216.9 10.499999999999968 216.5 7.599999999999969 216 6.499999999999969 L 215.1 4.499999999999969 L 215 6.499999999999969 z" stroke-linecap="round" />
</g>
</svg>