<?xml version="1.0" encoding="UTF-8" standalone="no" ?>
<!DOCTYPE svg PUBLIC "-//W3C//DTD SVG 1.1//EN" "http://www.w3.org/Graphics/SVG/1.1/DTD/svg11.dtd">
<svg xmlns="http://www.w3.org/2000/svg" xmlns:xlink="http://www.w3.org/1999/xlink" version="1.1" width="1080" height="1080" viewBox="0 0 1080 1080" xml:space="preserve">
<desc>Created with Fabric.js 5.2.4</desc>
<defs>
</defs>
<rect x="0" y="0" width="100%" height="100%" fill="transparent"></rect>
<g transform="matrix(1 0 0 1 540 540)" id="87e8072c-c295-49ac-adba-4c157029d7c8"  >
</g>
<g transform="matrix(1 0 0 1 540 540)" id="99e4ce42-4e1e-4dc8-be72-9da1db513968"  >
<rect style="stroke: none; stroke-width: 1; stroke-dasharray: none; stroke-linecap: butt; stroke-dashoffset: 0; stroke-linejoin: miter; stroke-miterlimit: 4; fill: rgb(255,255,255); fill-rule: nonzero; opacity: 1; visibility: hidden;" vector-effect="non-scaling-stroke"  x="-540" y="-540" rx="0" ry="0" width="1080" height="1080" />
</g>
<g transform="matrix(2.04 0 0 2.04 540 540)" id="adc48a0b-e627-4ba8-9a95-c4f0f71fb43d"  >
<path style="stroke: rgb(255,255,255); stroke-width: 2; stroke-dasharray: none; stroke-linecap: butt; stroke-dashoffset: 0; stroke-linejoin: miter; stroke-miterlimit: 4; fill: rgb(0,0,0); fill-opacity: 0.73; fill-rule: nonzero; opacity: 1;" vector-effect="non-scaling-stroke"  transform=" translate(-75.87, -37.5)" d="M 53.6 20.4 C 53.1 22.4 52.300000000000004 22.9 49.2 23.2 L 45.5 23.5 L 44.5 32.7 C 44 37.7 43.2 42.2 42.8 42.5 C 42.4 42.9 40.3 42.9 38.099999999999994 42.5 C 34.199999999999996 41.9 33.99999999999999 41.6 33.99999999999999 38.4 C 33.99999999999999 35.6 33.599999999999994 34.9 31.39999999999999 34.4 C 29.999999999999993 34 28.39999999999999 34.199999999999996 27.699999999999992 34.9 C 27.09999999999999 35.5 25.199999999999992 36 23.499999999999993 36.1 L 20.499999999999993 36.2 L 23.799999999999994 37.1 C 25.699999999999992 37.7 26.999999999999993 38.7 26.999999999999993 39.7 C 26.999999999999993 41.1 25.799999999999994 41.2 16.499999999999993 40.6 C 10.699999999999992 40.2 5.999999999999993 40.1 5.999999999999993 40.4 C 5.999999999999993 40.699999999999996 8.799999999999994 44.5 12.199999999999992 49 L 18.29999999999999 57 L 76.5 57 C 108.6 57 136.2 56.7 137.9 56.4 C 140.6 55.8 141 55.3 141 52.6 C 141 50 141.5 49.2 143.7 48.4 C 146.2 47.5 146.29999999999998 47.4 144.6 45.8 C 143.5 44.599999999999994 141.29999999999998 44 138.4 44 C 134.20000000000002 44 132.5 42.8 135.3 41.7 C 135.9 41.400000000000006 135.60000000000002 41.1 134.5 41 C 132.8 40.8 132.9 40.7 135 40.1 C 137.1 39.4 136.7 39.2 132.3 38.6 C 126.20000000000002 37.7 125.00000000000001 38.2 125.00000000000001 41.6 C 125.00000000000001 43.9 124.80000000000001 44 117.50000000000001 44 C 110.20000000000002 44 110.00000000000001 43.9 110.00000000000001 41.5 C 110.00000000000001 39.5 110.50000000000001 39 112.60000000000001 39 C 117.2 39 114.60000000000001 36.5 109.7 36.2 C 105.3 35.900000000000006 105 35.7 105 33.1 C 105 31.400000000000002 104.3 30 103.4 29.6 C 100.9 28.6 97.2 28.900000000000002 96.4 30.1 C 96.10000000000001 30.700000000000003 94.5 31 92.9 30.8 C 91.4 30.5 90.30000000000001 30.7 90.60000000000001 31.2 C 90.9 31.599999999999998 91.9 32 92.80000000000001 32.1 C 94.20000000000002 32.1 94.10000000000001 32.300000000000004 92.50000000000001 33 C 90.80000000000001 33.7 90.80000000000001 33.9 92.30000000000001 33.9 C 93.20000000000002 34 94.00000000000001 34.5 94.00000000000001 35 C 94.00000000000001 35.7 91.80000000000001 36 88.30000000000001 35.8 L 82.50000000000001 35.5 L 81.80000000000001 31.1 C 81.4 28.700000000000003 80.9 26.6 80.70000000000002 26.400000000000002 C 80.60000000000002 26.200000000000003 78.50000000000001 26.000000000000004 76.10000000000002 25.8 L 71.80000000000003 25.5 L 70.10000000000002 30.8 C 69.20000000000002 33.8 68.10000000000002 36.1 67.60000000000002 36.1 C 67.10000000000002 36.1 65.60000000000002 32.4 64.30000000000003 27.900000000000002 C 63.00000000000003 23.400000000000002 61.700000000000024 19.300000000000004 61.40000000000003 18.800000000000004 C 61.10000000000003 18.400000000000006 59.40000000000003 18.000000000000004 57.50000000000003 18.000000000000004 C 54.90000000000003 18.000000000000004 54.10000000000003 18.500000000000004 53.60000000000003 20.400000000000002 z" stroke-linecap="round" />
</g>
</svg>