<?xml version="1.0" encoding="UTF-8" standalone="no" ?>
<!DOCTYPE svg PUBLIC "-//W3C//DTD SVG 1.1//EN" "http://www.w3.org/Graphics/SVG/1.1/DTD/svg11.dtd">
<svg xmlns="http://www.w3.org/2000/svg" xmlns:xlink="http://www.w3.org/1999/xlink" version="1.1" width="1080" height="1080" viewBox="0 0 1080 1080" xml:space="preserve">
<desc>Created with Fabric.js 5.2.4</desc>
<defs>
</defs>
<rect x="0" y="0" width="100%" height="100%" fill="transparent"></rect>
<g transform="matrix(1 0 0 1 540 540)" id="99e4ce42-4e1e-4dc8-be72-9da1db513968"  >
<rect style="stroke: none; stroke-width: 1; stroke-dasharray: none; stroke-linecap: butt; stroke-dashoffset: 0; stroke-linejoin: miter; stroke-miterlimit: 4; fill: rgb(255,255,255); fill-rule: nonzero; opacity: 1; visibility: hidden;" vector-effect="non-scaling-stroke"  x="-540" y="-540" rx="0" ry="0" width="1080" height="1080" />
</g>
<g transform="matrix(1 0 0 1 540 540)" id="87e8072c-c295-49ac-adba-4c157029d7c8"  >
</g>
<g transform="matrix(0 2.03 -2.03 0 540 540)"  >
<path style="stroke: rgb(255,255,255); stroke-width: 2; stroke-dasharray: none; stroke-linecap: butt; stroke-dashoffset: 0; stroke-linejoin: miter; stroke-miterlimit: 4; fill: rgb(0,0,0); fill-opacity: 0.73; fill-rule: nonzero; opacity: 1;" vector-effect="non-scaling-stroke"  transform=" translate(-56.36, -30.99)" d="M 59.9 6.7 C 59.9 7.1000000000000005 59.9 12.600000000000001 60 18.7 C 60.1 28 59.9 30 58.7 30 C 57.900000000000006 30 57 29.3 56.6 28.5 C 55.7 26 48.6 26.6 45.6 29.4 C 44.1 30.7 43 32.199999999999996 43 32.9 C 43 33.699999999999996 38.1 34 26.5 34 L 10 34 L 10.1 38.2 C 10.1 40.6 10.9 45.400000000000006 11.799999999999999 49 L 13.499999999999998 55.5 L 52.4 55.8 C 81.1 56 91.6 55.699999999999996 92.69999999999999 54.8 C 94.1 53.699999999999996 101.39999999999999 41.599999999999994 102.6 38.599999999999994 C 103.1 37.3 102.19999999999999 36.99999999999999 97.1 36.99999999999999 L 91.1 36.99999999999999 L 90 32.9 C 89.3 30.599999999999998 89.1 27.799999999999997 89.4 26.7 C 89.7 25.4 89.30000000000001 24.599999999999998 87.9 24.3 C 86.9 24 86 23 86 22.1 C 85.9 20.700000000000003 85.8 20.700000000000003 84.6 22.200000000000003 C 82.89999999999999 24.500000000000004 75 24.700000000000003 75 22.500000000000004 C 75 21.600000000000005 74 21.000000000000004 72.3 20.900000000000002 L 69.5 20.8 L 72.5 20.1 L 75.5 19.5 L 71.2 18.2 C 66.10000000000001 16.599999999999998 65 17.2 65 21.099999999999998 C 65 22.799999999999997 64.3 24.9 63.4 25.699999999999996 C 62 27.199999999999996 61.9 26.399999999999995 62.1 16.999999999999996 C 62.300000000000004 9.599999999999996 62.1 6.4999999999999964 61.2 6.199999999999996 C 60.5 5.999999999999996 60 6.199999999999996 59.900000000000006 6.699999999999996 z" stroke-linecap="round" />
</g>
</svg>