<?xml version="1.0" encoding="UTF-8" standalone="no" ?>
<!DOCTYPE svg PUBLIC "-//W3C//DTD SVG 1.1//EN" "http://www.w3.org/Graphics/SVG/1.1/DTD/svg11.dtd">
<svg xmlns="http://www.w3.org/2000/svg" xmlns:xlink="http://www.w3.org/1999/xlink" version="1.1" width="1080" height="1080" viewBox="0 0 1080 1080" xml:space="preserve">
<desc>Created with Fabric.js 5.2.4</desc>
<defs>
</defs>
<rect x="0" y="0" width="100%" height="100%" fill="transparent"></rect>
<g transform="matrix(1 0 0 1 540 540)" id="99e4ce42-4e1e-4dc8-be72-9da1db513968"  >
<rect style="stroke: none; stroke-width: 1; stroke-dasharray: none; stroke-linecap: butt; stroke-dashoffset: 0; stroke-linejoin: miter; stroke-miterlimit: 4; fill: rgb(255,255,255); fill-rule: nonzero; opacity: 1; visibility: hidden;" vector-effect="non-scaling-stroke"  x="-540" y="-540" rx="0" ry="0" width="1080" height="1080" />
</g>
<g transform="matrix(1 0 0 1 540 540)" id="87e8072c-c295-49ac-adba-4c157029d7c8"  >
</g>
<g transform="matrix(0 1.22 -1.22 0 540 540)" id="dd40e3b9-d42d-41d4-9f68-346cc394ce74"  >
<path style="stroke: rgb(255,255,255); stroke-width: 2; stroke-dasharray: none; stroke-linecap: butt; stroke-dashoffset: 0; stroke-linejoin: miter; stroke-miterlimit: 4; fill: rgb(0,0,0); fill-opacity: 0.73; fill-rule: nonzero; opacity: 1;" vector-effect="non-scaling-stroke"  transform=" translate(-158.75, -38.5)" d="M 147.3 20.7 L 147.5 25.5 L 142.4 25.2 C 136.3 24.8 135.5 25.599999999999998 134.6 33 C 134.2 36 133.7 40 133.4 41.7 L 132.8 45 L 120.9 45 C 113.5 45 108.9 44.6 108.4 43.9 C 108 43.199999999999996 106.2 43 103.60000000000001 43.4 C 101.4 43.699999999999996 98.7 44 97.80000000000001 43.9 C 95.10000000000001 43.8 87.20000000000002 43.9 85.30000000000001 44 C 84.30000000000001 44 82.00000000000001 43.8 80.20000000000002 43.4 C 78.30000000000001 43 75.90000000000002 43.199999999999996 74.70000000000002 43.8 C 73.50000000000001 44.4 69.90000000000002 45.099999999999994 66.70000000000002 45.4 C 59.000000000000014 46 52.90000000000002 49.6 50.20000000000002 55.099999999999994 C 49.000000000000014 57.39999999999999 48.30000000000002 59.699999999999996 48.600000000000016 60.199999999999996 C 48.90000000000001 60.599999999999994 98.4 60.99999999999999 158.70000000000002 60.99999999999999 L 268.20000000000005 60.99999999999999 L 267.6 58.29999999999999 C 267.1 56.59999999999999 267.3 55.39999999999999 268.20000000000005 54.79999999999999 C 269.30000000000007 54.19999999999999 269.20000000000005 53.79999999999999 268.1 53.09999999999999 C 267.20000000000005 52.499999999999986 267 51.29999999999999 267.40000000000003 49.59999999999999 C 268.00000000000006 47.09999999999999 267.90000000000003 46.999999999999986 263.50000000000006 46.999999999999986 L 259 46.999999999999986 L 259 30 L 241.1 30 L 239.6 35.2 C 238.79999999999998 38.1 237.5 42.6 236.79999999999998 45.2 C 235.49999999999997 50.400000000000006 235.1 50.6 227.79999999999998 49.400000000000006 C 224.99999999999997 48.900000000000006 223.99999999999997 48.300000000000004 223.99999999999997 46.900000000000006 C 223.99999999999997 45.300000000000004 223.19999999999996 45.00000000000001 218.89999999999998 45.00000000000001 C 215.39999999999998 45.00000000000001 213.39999999999998 45.50000000000001 212.59999999999997 46.50000000000001 C 211.59999999999997 47.900000000000006 210.19999999999996 47.900000000000006 202.49999999999997 47.10000000000001 C 197.49999999999997 46.60000000000001 187.09999999999997 45.80000000000001 179.29999999999998 45.50000000000001 L 165.1 44.800000000000004 L 158.9 35.400000000000006 C 154.8 29.100000000000005 152.1 26.000000000000007 150.9 26.000000000000007 C 149.3 26.000000000000007 149 25.200000000000006 149 21.000000000000007 C 149 18.200000000000006 148.6 16.000000000000007 148 16.000000000000007 C 147.5 16.000000000000007 147.1 18.10000000000001 147.3 20.700000000000006 z" stroke-linecap="round" />
</g>
</svg>