<svg xmlns="http://www.w3.org/2000/svg" fill="gray" preserveAspectRatio="none" start="22" axis="x" ship_length="5" sunk="" width="90.20279733337998" height="288.8461560007703"><rect id="backgroundrect" width="100%" height="100%" x="0" y="0" fill="none" stroke="none" class="" style=""/><g class="currentLayer" style=""><title>Layer 1</title><path d="M110.46965851783753,103.32930946350098 c0,1.1 0,4.1 0.1,6.8 c0.1,3.5 -0.30000000000000016,4.9 -1.4,5.3 c-0.9,0.30000000000000016 -1.3,1 -1,1.5 c0.30000000000000016,0.5 -0.2,1.2 -1,1.5 c-0.9,0.30000000000000016 -1.6,1.4 -1.6,2.4 c0,3.2 -4.2,13 -5.6,13 c-0.9,0 -1.4,-1.7000000000000002 -1.6,-5.3 l-0.30000000000000016,-5.2 h-13 l0.30000000000000016,5.1 c0.30000000000000016,4 0,5.3 -1.2,5.7 c-1,0.4 -1.6,1.9 -1.6,4.2 V141.82930946350098 h-23 v14 H-72.43034148216248 v2.5 c0,2 0.5,2.5 2.5,2.5 c1.6,0 2.5,0.6000000000000003 2.5,1.5 c0,1.3 -2.3,1.5 -14.5,1.5 c-16.4,0 -15.9,-0.30000000000000016 -13,7.9 c2.1,6.1 5.1,9.8 9.8,12.4 l4.2,2.2 l128.2,0.30000000000000016 L175.56965851783752,186.82930946350098 l0.6000000000000003,-2.7 c1.4,-6.4 3.9,-13.2 7.3,-19.8 c2,-3.9 3.7,-7.3 3.9,-7.7 c0.2,-0.4 -11.3,-0.9 -25.5,-1 l-25.8,-0.30000000000000016 l-0.2,-4 c-0.6000000000000003,-9.7 -1.5,-14.5 -2.6,-14.5 c-0.9,0 -1.1,-1.3 -0.9,-4 l0.4,-4 h-5 c-3,0 -5.4,0.5 -5.9,1.3 c-0.4,0.7000000000000003 -2,1.8 -3.5,2.4 c-1.6,0.7000000000000003 -2.8,1.9 -2.8,2.8 c0,0.8 -0.5,1.5 -1.1,1.5 c-0.7000000000000003,0 -1,-3.3 -1,-9.8 c0.1,-12.3 -0.8,-23.4 -2,-24.7 c-0.6000000000000003,-0.5 -0.9,-0.2 -1,1 z" id="svg_1" class="" fill="#b6b6b6" fill-opacity="1" stroke="#242424" stroke-opacity="1" stroke-width="2" transform="rotate(89.6547622680664 45.434364318847656,144.46360778808594) "/></g></svg>