<svg xmlns="http://www.w3.org/2000/svg" fill="gray" preserveAspectRatio="none" start="53" axis="x" ship_length="4" sunk="" width="283" height="85"><rect id="backgroundrect" width="100%" height="100%" x="0" y="0" fill="none" stroke="none" class="" style=""/><g class="currentLayer" style=""><title>Layer 1</title><path d="M206,1.9999942779541016 c-0.2,1.1 -0.2,2.3 -0.1,2.7 c0,0.4 0.30000000000000004,2.5 0.7000000000000001,4.7 c0.6000000000000001,3.4 0.4,4.1 -1,4.1 c-1.3,0 -1.6,0.5 -1.1,2 c0.4,1.4 0.2,2 -0.8,2 s-1.5,1.1 -1.5,3.2 c-0.1,1.8 -0.9,5.8 -2,8.8 c-1.8,5.2 -2.1,5.5 -5.5,5.8 c-2.8,0.2 -3.6,0.8 -3.9,2.5 c-0.2,1.2 -1,2.3 -1.9,2.5 c-1.2,0.2 -2.4,-2.6 -5.5,-13.3 L179.5,13.499994277954102 h-4.2 c-6.1,0 -6.9,1.4 -7.8,12.7 c-1,14.8 -0.8,14.3 -7,14.3 c-4.8,0 -5.4,0.30000000000000004 -5.8,2.2 c-0.4,2 -0.4,1.9 -0.6000000000000001,-0.5 c-0.1,-2 -0.6000000000000001,-2.7 -2.1,-2.7 c-1.4,0 -2,-0.7000000000000001 -2,-2.1 c0,-1.5 -0.5,-2 -2.2,-1.7000000000000002 c-1.6,0.2 -2.2,0.9 -2,2 c0.2,1 -0.2,1.8 -0.8,1.8 c-0.5,0 -1,1.1 -1,2.5 c0,2.4 -0.30000000000000004,2.5 -5.4,2.5 c-4.9,0 -5.5,0.2 -5.8,2.2 c-0.2,1.5 -1.1,2.4 -2.5,2.6 c-1.5,0.2 -2.3,1 -2.3,2.3 c0,1.8 -0.9,1.9 -23.2,1.9 c-12.8,0 -23.9,-0.4 -24.7,-0.9 c-2.2,-1.4 2,-4.7 7.4,-5.7 c5,-0.9 6.9,-2.9 4,-4 c-0.9,-0.4 -2.1,0 -2.8,1 c-0.9,1.3 -2.4,1.7000000000000002 -5.7,1.4 c-6.5,-0.5 -6.4,-2.8 0.2,-2.9 c8.1,-0.2 2,-1.7000000000000002 -6.7,-1.7000000000000002 c-8.4,0 -14.9,1.5 -7.2,1.7000000000000002 c5.4,0.1 6,1.2 1.7000000000000002,2.8 c-1.9,0.7000000000000001 -3,1.8 -3,3.1 c0,2.1 2.2,4.5 3.4,3.7 c0.30000000000000004,-0.30000000000000004 0.2,0 -0.30000000000000004,0.6000000000000001 c-0.5,0.7000000000000001 -5,0.9 -12.7,0.6000000000000001 c-6.6,-0.30000000000000004 -13.5,-0.6000000000000001 -15.4,-0.6000000000000001 c-2.7,-0.1 -3.1,-0.30000000000000004 -2,-1.1 c0.8,-0.5 2.7,-1 4.2,-1 c1.7000000000000002,0 3.1,-0.8 3.8,-2 c0.8,-1.5 2.1,-2 5.5,-2 c4.6,0 6.5,-1.4 4.6,-3.3 c-0.9,-0.9 -1.6,-0.8 -3.1,0.1 c-2.4,1.4 -11,1.6 -11,0.2 c0,-0.6000000000000001 2,-1 4.5,-1 s4.5,-0.5 4.5,-1 c0,-1.3 -20.7,-1.3 -21.5,-0.1 c-0.30000000000000004,0.6000000000000001 1.6,1.1 4.2,1.3 c4.7,0.30000000000000004 4.7,0.4 2,1.6 c-1.5,0.6000000000000001 -3,1.9 -3.4,2.8 c-0.7000000000000001,2 1,5 2.7,4.6 c0.6000000000000001,-0.1 0.9,0.2 0.5,0.8 c-0.30000000000000004,0.5 -3.7,1 -7.6,1 H24 v2.9 c0,2.4 0.5,3 2.5,3.3 c1.4,0.2 2.5,0.7000000000000001 2.5,1.3 c0,0.6000000000000001 -5.7,1.1 -14.5,1.3 c-8,0.1 -14.5,0.6000000000000001 -14.5,1 c0,0.5 0.7000000000000001,3.1 1.5,6 c1.9,6.3 5.7,10.9 11,13.3 c3.8,1.8 9.9,1.9 131,1.9 h127 l1.7000000000000002,-6.4 c1.7000000000000002,-6.5 8.3,-21.1 9.9,-22.2 c2.9,-1.8 -0.5,-2.4 -13,-2.4 c-11.7,0 -14,-0.2 -14.5,-1.6 c-0.9,-2.4 -0.9,-2.4 4.2,-2.5 l4.7,-0.2 l-6,-0.8 c-10.6,-1.6 -13,-1.7000000000000002 -15.2,-1.2 c-2.2,0.5 -3.3,3.3 -1.3,3.3 c0.6000000000000001,0 1,0.7000000000000001 1,1.5 c0,1.2 -1.3,1.5 -5.5,1.5 H231 v-5.3 c0,-7.3 -1,-12.7 -2.4,-12.7 c-0.7000000000000001,0 -1,-1.4 -0.8,-4 l0.4,-4 h-4.6 c-4.7,0 -8.1,1.3 -10.2,3.9 c-0.9,1.2 -1.3,0.5 -1.9,-3.6 c-0.4,-2.9 -0.4,-6.1 0,-7.2 c0.4,-1.4 -0.1,-3.1 -1.4,-5 c-1.3,-1.8 -2.1,-4.6 -2.2,-7.3 c0,-2.3 -0.4,-5.2 -0.9,-6.3 l-0.9,-2 l-0.1,2 z" id="svg_1" class="" fill="#b6b6b6" fill-opacity="1" stroke="#242424" stroke-opacity="1" stroke-width="2"/></g></svg>