<svg xmlns="http://www.w3.org/2000/svg" fill="gray" preserveAspectRatio="none" start="42" axis="x" ship_length="2" sunk="" width="93" height="50"><rect id="backgroundrect" width="100%" height="100%" x="0" y="0" fill="none" stroke="none" class="" style=""/><g class="currentLayer" style=""><title>Layer 1</title><path d="M49.9,0.5766407966613771 c0,0.4 0,5.9 0.1,12 c0.1,9.3 -0.1,11.3 -1.3,11.3 c-0.8,0 -1.7000000000000002,-0.7000000000000001 -2.1,-1.5 c-0.9,-2.5 -8,-1.9 -11,0.9 c-1.5,1.3 -2.6,2.8 -2.6,3.5 c0,0.8 -4.9,1.1 -16.5,1.1 H0 l0.1,4.2 c0,2.4 0.8,7.2 1.7000000000000002,10.8 l1.7000000000000002,6.5 l38.9,0.30000000000000004 c28.7,0.2 39.2,-0.1 40.3,-1 c1.4,-1.1 8.7,-13.2 9.9,-16.2 c0.5,-1.3 -0.4,-1.6 -5.5,-1.6 h-6 L80,26.776640796661376 c-0.7000000000000001,-2.3 -0.9,-5.1 -0.6000000000000001,-6.2 c0.30000000000000004,-1.3 -0.1,-2.1 -1.5,-2.4 c-1,-0.30000000000000004 -1.9,-1.3 -1.9,-2.2 c-0.1,-1.4 -0.2,-1.4 -1.4,0.1 c-1.7000000000000002,2.3 -9.6,2.5 -9.6,0.30000000000000004 c0,-0.9 -1,-1.5 -2.7,-1.6 l-2.8,-0.1 l3,-0.7000000000000001 l3,-0.6000000000000001 l-4.3,-1.3 c-5.1,-1.6 -6.2,-1 -6.2,2.9 c0,1.7000000000000002 -0.7000000000000001,3.8 -1.6,4.6 c-1.4,1.5 -1.5,0.7000000000000001 -1.3,-8.7 c0.2,-7.4 0,-10.5 -0.9,-10.8 c-0.7000000000000001,-0.2 -1.2,0 -1.3,0.5 z" id="svg_1" class="selected" fill="#b6b6b6" fill-opacity="1" stroke="#242424" stroke-opacity="1" stroke-width="2"/></g></svg>