<svg xmlns="http://www.w3.org/2000/svg" fill="gray" preserveAspectRatio="none" start="46" axis="x" ship_length="3" sunk="" width="51.601398666689974" height="226"><rect id="backgroundrect" width="100%" height="100%" x="0" y="0" fill="none" stroke="none" class="selected" style=""/><g class="currentLayer" style=""><title>Layer 1</title><path d="M15.277070331573498,95.4762216180563 l0.2,4.8 l-5.1,-0.3000000000000002 c-6.1,-0.4 -6.9,0.4 -7.8,7.8 c-0.4,3 -0.9,7 -1.2,8.7 l-0.6000000000000004,3.3 h-11.9 c-7.4,0 -12,-0.4 -12.5,-1.1 c-0.4,-0.7000000000000004 -2.2,-0.9 -4.8,-0.5 c-2.2,0.3000000000000002 -4.9,0.6000000000000004 -5.8,0.5 c-2.7,-0.1 -10.6,0 -12.5,0.1 c-1,0 -3.3,-0.2 -5.1,-0.6000000000000004 c-1.9,-0.4 -4.3,-0.2 -5.5,0.4 c-1.2,0.6000000000000004 -4.8,1.3 -8,1.6 c-7.7,0.6000000000000004 -13.8,4.2 -16.5,9.7 c-1.2,2.3 -1.9,4.6 -1.6,5.1 c0.3000000000000002,0.4 49.8,0.8 110.1,0.8 h109.5 l-0.6000000000000004,-2.7 c-0.5,-1.7000000000000002 -0.3000000000000002,-2.9 0.6000000000000004,-3.5 c1.1,-0.6000000000000004 1,-1 -0.1,-1.7000000000000002 c-0.9,-0.6000000000000004 -1.1,-1.8 -0.7000000000000004,-3.5 c0.6000000000000004,-2.5 0.5,-2.6 -3.9,-2.6 H126.97707033157349 V104.7762216180563 h-17.9 l-1.5,5.2 c-0.8,2.9 -2.1,7.4 -2.8,10 c-1.3,5.2 -1.7000000000000002,5.4 -9,4.2 c-2.8,-0.5 -3.8,-1.1 -3.8,-2.5 c0,-1.6 -0.8,-1.9 -5.1,-1.9 c-3.5,0 -5.5,0.5 -6.3,1.5 c-1,1.4 -2.4,1.4 -10.1,0.6000000000000004 c-5,-0.5 -15.4,-1.3 -23.2,-1.6 l-14.2,-0.7000000000000004 l-6.2,-9.4 c-4.1,-6.3 -6.8,-9.4 -8,-9.4 c-1.6,0 -1.9,-0.8 -1.9,-5 c0,-2.8 -0.4,-5 -1,-5 c-0.5,0 -0.9,2.1 -0.7000000000000004,4.7 z" id="svg_1" class="" fill="#b6b6b6" fill-opacity="1" stroke="#242424" stroke-opacity="1" stroke-width="2" transform="rotate(89.49600982666016 26.730785369873033,113.2762145996094) "/></g></svg>